<svg width="820" height="310" viewBox="0 0 820 310" fill="none" xmlns="http://www.w3.org/2000/svg" role="img" aria-labelledby="logoTitle logoDesc">
  <title id="logoTitle">Velesari Holdings logo</title>
  <desc id="logoDesc">Gold and emerald lotus crest with VH monogram and Velesari Holdings wordmark.</desc>
  <defs>
    <linearGradient id="gold" x1="0" y1="0" x2="1" y2="1">
      <stop offset="0" stop-color="#F9EDB2"/>
      <stop offset="0.45" stop-color="#D4B25A"/>
      <stop offset="1" stop-color="#F4DB8D"/>
    </linearGradient>
    <radialGradient id="emerald" cx="0" cy="0" r="1" gradientUnits="userSpaceOnUse" gradientTransform="translate(410 90) rotate(90) scale(170 230)">
      <stop offset="0" stop-color="#0E6A43"/>
      <stop offset="1" stop-color="#05281D"/>
    </radialGradient>
    <filter id="softGlow" x="0" y="0" width="100%" height="100%">
      <feDropShadow dx="0" dy="8" stdDeviation="8" flood-color="#03110C" flood-opacity="0.45"/>
    </filter>
  </defs>

  <g filter="url(#softGlow)" transform="translate(255 10)">
    <path d="M155 170C95 156 56 128 30 86C69 66 112 67 155 84V170Z" fill="url(#emerald)" stroke="url(#gold)" stroke-width="5"/>
    <path d="M155 170C215 156 254 128 280 86C241 66 198 67 155 84V170Z" fill="url(#emerald)" stroke="url(#gold)" stroke-width="5"/>
    <path d="M155 162C106 120 96 70 155 24C214 70 204 120 155 162Z" fill="url(#emerald)" stroke="url(#gold)" stroke-width="5"/>
    <path d="M155 177C106 196 67 191 26 165C58 128 106 125 155 140V177Z" fill="url(#emerald)" stroke="url(#gold)" stroke-width="5"/>
    <path d="M155 177C204 196 243 191 284 165C252 128 204 125 155 140V177Z" fill="url(#emerald)" stroke="url(#gold)" stroke-width="5"/>

    <text x="155" y="121" text-anchor="middle" fill="url(#gold)" font-size="74" font-family="Cinzel, 'Times New Roman', serif" font-weight="700" letter-spacing="2">VH</text>

    <path d="M74 111C83 98 91 95 101 94C95 106 92 113 83 120C76 119 73 116 74 111Z" fill="url(#gold)" opacity="0.92"/>
    <path d="M210 118C217 106 224 101 235 99C233 111 231 118 224 124C216 124 210 122 210 118Z" fill="url(#gold)" opacity="0.92"/>
    <path d="M84 151C103 151 114 160 123 171C103 172 91 166 84 151Z" fill="url(#gold)" opacity="0.92"/>
    <path d="M222 150C238 151 250 159 258 170C241 172 229 167 222 150Z" fill="url(#gold)" opacity="0.92"/>
  </g>

  <g transform="translate(0 12)">
    <text x="410" y="255" text-anchor="middle" fill="#0E593E" stroke="#E7D8A0" stroke-width="1" paint-order="stroke" font-size="88" letter-spacing="5" font-family="Cinzel, 'Times New Roman', serif" font-weight="600">VELESARI</text>
    <line x1="190" y1="286" x2="315" y2="286" stroke="url(#gold)" stroke-width="3" stroke-linecap="round"/>
    <line x1="505" y1="286" x2="630" y2="286" stroke="url(#gold)" stroke-width="3" stroke-linecap="round"/>
    <text x="410" y="296" text-anchor="middle" fill="url(#gold)" font-size="30" letter-spacing="7" font-family="Inter, Arial, sans-serif" font-weight="700">HOLDINGS LLC</text>
  </g>
</svg>
