<svg xmlns="http://www.w3.org/2000/svg" viewBox="0 0 320 320" role="img" aria-labelledby="title desc">
  <title id="title">Velesari Holdings brand mark</title>
  <desc id="desc">Institutional monogram with a shield, horizon lines, and refined gold accents.</desc>
  <defs>
    <linearGradient id="bg" x1="0" x2="0" y1="0" y2="1">
      <stop offset="0%" stop-color="#0f3024"/>
      <stop offset="100%" stop-color="#071710"/>
    </linearGradient>
    <linearGradient id="metal" x1="0" x2="1" y1="0" y2="1">
      <stop offset="0%" stop-color="#f2e3bf"/>
      <stop offset="45%" stop-color="#d7b878"/>
      <stop offset="100%" stop-color="#a87a36"/>
    </linearGradient>
    <clipPath id="shieldClip">
      <path d="M160 28 252 64v76c0 70-39 122-92 154-53-32-92-84-92-154V64z"/>
    </clipPath>
  </defs>

  <rect x="14" y="14" width="292" height="292" rx="44" fill="url(#bg)" stroke="#d0b071" stroke-width="2"/>
  <path d="M160 28 252 64v76c0 70-39 122-92 154-53-32-92-84-92-154V64z" fill="#0b241a" stroke="url(#metal)" stroke-width="4"/>

  <g clip-path="url(#shieldClip)" opacity="0.45">
    <path d="M52 115h216" stroke="#d0b071" stroke-width="1"/>
    <path d="M52 136h216" stroke="#d0b071" stroke-width="1"/>
    <path d="M52 157h216" stroke="#d0b071" stroke-width="1"/>
    <path d="M52 178h216" stroke="#d0b071" stroke-width="1"/>
    <path d="M52 199h216" stroke="#d0b071" stroke-width="1"/>
  </g>

  <path d="M108 92h26l26 58 26-58h26l-40 83 40 53h-27l-25-34-25 34h-27l39-53z" fill="url(#metal)"/>
  <path d="M104 244h112" stroke="url(#metal)" stroke-width="4" stroke-linecap="round"/>
  <circle cx="236" cy="244" r="5" fill="#d7b878"/>
</svg>
